<?xml version="1.0" encoding="UTF-8" standalone="no"?>
<!DOCTYPE svg PUBLIC "-//W3C//DTD SVG 1.1//EN"
 "http://www.w3.org/Graphics/SVG/1.1/DTD/svg11.dtd">
<!-- Generated by graphviz version 2.38.0 (20140413.2041)
 -->
<!-- Title: G Pages: 1 -->
<svg width="380pt" height="189pt"
 viewBox="0.00 0.00 380.00 189.02" xmlns="http://www.w3.org/2000/svg" xmlns:xlink="http://www.w3.org/1999/xlink">
<g id="graph0" class="graph" transform="scale(1 1) rotate(0) translate(4 185.02)">
<title>G</title>
<polygon fill="white" stroke="none" points="-4,4 -4,-185.02 376,-185.02 376,4 -4,4"/>
<g id="clust1" class="cluster"><title>clustersecret</title>
<polygon fill="none" stroke="black" points="8,-83.3796 8,-173.02 364,-173.02 364,-83.3796 8,-83.3796"/>
<text text-anchor="middle" x="48.0674" y="-157.82" font-family="Times,serif" font-size="14.00">Secret state</text>
</g>
<!-- seed -->
<g id="node1" class="node"><title>seed</title>
<ellipse fill="none" stroke="black" cx="42" cy="-117.2" rx="25.642" ry="25.642"/>
<text text-anchor="middle" x="42" y="-113" font-family="Times,serif" font-size="14.00">seed</text>
</g>
<!-- state₁ -->
<g id="node3" class="node"><title>state₁</title>
<polygon fill="none" stroke="black" points="140,-135.2 86,-135.2 86,-99.1999 140,-99.1999 140,-135.2"/>
<text text-anchor="middle" x="113" y="-114.518" font-family="Times,serif" font-size="14.00">state₁</text>
</g>
<!-- seed&#45;&gt;state₁ -->
<g id="edge1" class="edge"><title>seed&#45;&gt;state₁</title>
<path fill="none" stroke="black" d="M68.0703,-117.2C70.681,-117.2 73.2916,-117.2 75.9023,-117.2"/>
<polygon fill="black" stroke="black" points="75.972,-120.7 85.972,-117.2 75.972,-113.7 75.972,-120.7"/>
</g>
<!-- … -->
<g id="node2" class="node"><title>…</title>
<text text-anchor="middle" x="329" y="-113" font-family="Times,serif" font-size="14.00">…</text>
</g>
<!-- state₂ -->
<g id="node4" class="node"><title>state₂</title>
<polygon fill="none" stroke="black" points="212,-135.2 158,-135.2 158,-99.1999 212,-99.1999 212,-135.2"/>
<text text-anchor="middle" x="185" y="-114.518" font-family="Times,serif" font-size="14.00">state₂</text>
</g>
<!-- state₁&#45;&gt;state₂ -->
<g id="edge2" class="edge"><title>state₁&#45;&gt;state₂</title>
<path fill="none" stroke="black" d="M140.281,-117.2C142.738,-117.2 145.194,-117.2 147.651,-117.2"/>
<polygon fill="black" stroke="black" points="147.75,-120.7 157.75,-117.2 147.749,-113.7 147.75,-120.7"/>
</g>
<!-- out₁ -->
<g id="node6" class="node"><title>out₁</title>
<ellipse fill="none" stroke="black" cx="112" cy="-27.6898" rx="27.8809" ry="27.8809"/>
<text text-anchor="middle" x="112" y="-25.0074" font-family="Times,serif" font-size="14.00">out₁</text>
</g>
<!-- state₁&#45;&gt;out₁ -->
<g id="edge5" class="edge"><title>state₁&#45;&gt;out₁</title>
<path fill="none" stroke="black" d="M112.802,-98.9108C112.694,-89.4529 112.556,-77.3525 112.425,-65.8702"/>
<polygon fill="black" stroke="black" points="115.922,-65.5519 112.307,-55.5926 108.922,-65.632 115.922,-65.5519"/>
</g>
<!-- state₃ -->
<g id="node5" class="node"><title>state₃</title>
<polygon fill="none" stroke="black" points="284,-135.2 230,-135.2 230,-99.1999 284,-99.1999 284,-135.2"/>
<text text-anchor="middle" x="257" y="-114.518" font-family="Times,serif" font-size="14.00">state₃</text>
</g>
<!-- state₂&#45;&gt;state₃ -->
<g id="edge3" class="edge"><title>state₂&#45;&gt;state₃</title>
<path fill="none" stroke="black" d="M212.281,-117.2C214.738,-117.2 217.194,-117.2 219.651,-117.2"/>
<polygon fill="black" stroke="black" points="219.75,-120.7 229.75,-117.2 219.749,-113.7 219.75,-120.7"/>
</g>
<!-- out₂ -->
<g id="node7" class="node"><title>out₂</title>
<ellipse fill="none" stroke="black" cx="185" cy="-27.6898" rx="27.8809" ry="27.8809"/>
<text text-anchor="middle" x="185" y="-25.0074" font-family="Times,serif" font-size="14.00">out₂</text>
</g>
<!-- state₂&#45;&gt;out₂ -->
<g id="edge6" class="edge"><title>state₂&#45;&gt;out₂</title>
<path fill="none" stroke="black" d="M185,-98.9108C185,-89.4529 185,-77.3525 185,-65.8702"/>
<polygon fill="black" stroke="black" points="188.5,-65.5926 185,-55.5926 181.5,-65.5927 188.5,-65.5926"/>
</g>
<!-- state₃&#45;&gt;… -->
<g id="edge4" class="edge"><title>state₃&#45;&gt;…</title>
<path fill="none" stroke="black" d="M284.281,-117.2C286.738,-117.2 289.194,-117.2 291.651,-117.2"/>
<polygon fill="black" stroke="black" points="291.75,-120.7 301.75,-117.2 291.749,-113.7 291.75,-120.7"/>
</g>
<!-- out₃ -->
<g id="node8" class="node"><title>out₃</title>
<ellipse fill="none" stroke="black" cx="258" cy="-27.6898" rx="27.8809" ry="27.8809"/>
<text text-anchor="middle" x="258" y="-25.0074" font-family="Times,serif" font-size="14.00">out₃</text>
</g>
<!-- state₃&#45;&gt;out₃ -->
<g id="edge7" class="edge"><title>state₃&#45;&gt;out₃</title>
<path fill="none" stroke="black" d="M257.198,-98.9108C257.306,-89.4529 257.444,-77.3525 257.575,-65.8702"/>
<polygon fill="black" stroke="black" points="261.078,-65.632 257.693,-55.5926 254.078,-65.5519 261.078,-65.632"/>
</g>
</g>
</svg>
