<?xml version="1.0" encoding="UTF-8" standalone="no"?>
<!DOCTYPE svg PUBLIC "-//W3C//DTD SVG 1.1//EN"
 "http://www.w3.org/Graphics/SVG/1.1/DTD/svg11.dtd">
<!-- Generated by graphviz version 2.38.0 (20140413.2041)
 -->
<!-- Title: G Pages: 1 -->
<svg width="366pt" height="178pt"
 viewBox="0.00 0.00 366.00 177.90" xmlns="http://www.w3.org/2000/svg" xmlns:xlink="http://www.w3.org/1999/xlink">
<g id="graph0" class="graph" transform="scale(1 1) rotate(0) translate(4 173.901)">
<title>G</title>
<polygon fill="white" stroke="none" points="-4,4 -4,-173.901 362,-173.901 362,4 -4,4"/>
<text text-anchor="middle" x="87.7139" y="-154.701" font-family="Times,serif" font-size="14.00">The `primes mod 10` PRNG</text>
<g id="clust1" class="cluster"><title>clustersecret</title>
<polygon fill="none" stroke="black" points="8,-64 8,-139.901 350,-139.901 350,-64 8,-64"/>
<text text-anchor="middle" x="52.3433" y="-124.701" font-family="Times,serif" font-size="14.00">Internal state</text>
</g>
<!-- 13 -->
<g id="node1" class="node"><title>13</title>
<ellipse fill="none" stroke="black" cx="35" cy="-90.9503" rx="18.9007" ry="18.9007"/>
<text text-anchor="middle" x="35" y="-86.7503" font-family="Times,serif" font-size="14.00">13</text>
</g>
<!-- 17 -->
<g id="node3" class="node"><title>17</title>
<polygon fill="none" stroke="black" points="126,-108.95 72,-108.95 72,-72.9503 126,-72.9503 126,-108.95"/>
<text text-anchor="middle" x="99" y="-86.7503" font-family="Times,serif" font-size="14.00">17</text>
</g>
<!-- 13&#45;&gt;17 -->
<g id="edge1" class="edge"><title>13&#45;&gt;17</title>
<path fill="none" stroke="black" d="M54,-90.9503C56.6147,-90.9503 59.2295,-90.9503 61.8442,-90.9503"/>
<polygon fill="black" stroke="black" points="61.9297,-94.4504 71.9297,-90.9503 61.9297,-87.4504 61.9297,-94.4504"/>
</g>
<!-- … -->
<g id="node2" class="node"><title>…</title>
<text text-anchor="middle" x="315" y="-86.7503" font-family="Times,serif" font-size="14.00">…</text>
</g>
<!-- 19 -->
<g id="node4" class="node"><title>19</title>
<polygon fill="none" stroke="black" points="198,-108.95 144,-108.95 144,-72.9503 198,-72.9503 198,-108.95"/>
<text text-anchor="middle" x="171" y="-86.7503" font-family="Times,serif" font-size="14.00">19</text>
</g>
<!-- 17&#45;&gt;19 -->
<g id="edge2" class="edge"><title>17&#45;&gt;19</title>
<path fill="none" stroke="black" d="M126.281,-90.9503C128.738,-90.9503 131.194,-90.9503 133.651,-90.9503"/>
<polygon fill="black" stroke="black" points="133.75,-94.4504 143.75,-90.9503 133.749,-87.4504 133.75,-94.4504"/>
</g>
<!-- 7 -->
<g id="node6" class="node"><title>7</title>
<ellipse fill="none" stroke="black" cx="99" cy="-18" rx="18" ry="18"/>
<text text-anchor="middle" x="99" y="-13.8" font-family="Times,serif" font-size="14.00">7</text>
</g>
<!-- 17&#45;&gt;7 -->
<g id="edge5" class="edge"><title>17&#45;&gt;7</title>
<path fill="none" stroke="black" d="M99,-72.7752C99,-64.7574 99,-55.0223 99,-46.0502"/>
<polygon fill="black" stroke="black" points="102.5,-46.0169 99,-36.0169 95.5001,-46.017 102.5,-46.0169"/>
</g>
<!-- 23 -->
<g id="node5" class="node"><title>23</title>
<polygon fill="none" stroke="black" points="270,-108.95 216,-108.95 216,-72.9503 270,-72.9503 270,-108.95"/>
<text text-anchor="middle" x="243" y="-86.7503" font-family="Times,serif" font-size="14.00">23</text>
</g>
<!-- 19&#45;&gt;23 -->
<g id="edge3" class="edge"><title>19&#45;&gt;23</title>
<path fill="none" stroke="black" d="M198.281,-90.9503C200.738,-90.9503 203.194,-90.9503 205.651,-90.9503"/>
<polygon fill="black" stroke="black" points="205.75,-94.4504 215.75,-90.9503 205.749,-87.4504 205.75,-94.4504"/>
</g>
<!-- 9 -->
<g id="node7" class="node"><title>9</title>
<ellipse fill="none" stroke="black" cx="171" cy="-18" rx="18" ry="18"/>
<text text-anchor="middle" x="171" y="-13.8" font-family="Times,serif" font-size="14.00">9</text>
</g>
<!-- 19&#45;&gt;9 -->
<g id="edge6" class="edge"><title>19&#45;&gt;9</title>
<path fill="none" stroke="black" d="M171,-72.7752C171,-64.7574 171,-55.0223 171,-46.0502"/>
<polygon fill="black" stroke="black" points="174.5,-46.0169 171,-36.0169 167.5,-46.017 174.5,-46.0169"/>
</g>
<!-- 23&#45;&gt;… -->
<g id="edge4" class="edge"><title>23&#45;&gt;…</title>
<path fill="none" stroke="black" d="M270.281,-90.9503C272.738,-90.9503 275.194,-90.9503 277.651,-90.9503"/>
<polygon fill="black" stroke="black" points="277.75,-94.4504 287.75,-90.9503 277.749,-87.4504 277.75,-94.4504"/>
</g>
<!-- 3 -->
<g id="node8" class="node"><title>3</title>
<ellipse fill="none" stroke="black" cx="243" cy="-18" rx="18" ry="18"/>
<text text-anchor="middle" x="243" y="-13.8" font-family="Times,serif" font-size="14.00">3</text>
</g>
<!-- 23&#45;&gt;3 -->
<g id="edge7" class="edge"><title>23&#45;&gt;3</title>
<path fill="none" stroke="black" d="M243,-72.7752C243,-64.7574 243,-55.0223 243,-46.0502"/>
<polygon fill="black" stroke="black" points="246.5,-46.0169 243,-36.0169 239.5,-46.017 246.5,-46.0169"/>
</g>
</g>
</svg>
